<?xml version="1.0" encoding="UTF-8" standalone="no"?>
<svg
   width="16"
   height="16"
   fill="currentColor"
   class="bi bi-arrow-left-right"
   viewBox="0 0 16 16"
   version="1.1"
   id="svg4"
   xmlns="http://www.w3.org/2000/svg"
   xmlns:svg="http://www.w3.org/2000/svg">
  <defs
     id="defs8" />
  <path
     fill-rule="evenodd"
     d="M 1,11.5 A 0.5,0.5 0 0 0 1.5,12 h 11.793 l -3.147,3.146 a 0.5006316,0.5006316 0 0 0 0.708,0.708 l 4,-4 a 0.5,0.5 0 0 0 0,-0.708 l -4,-4 A 0.5006316,0.5006316 0 0 0 10.146,7.854 L 13.293,11 H 1.5 A 0.5,0.5 0 0 0 1,11.5 Z m 14,-7 A 0.5,0.5 0 0 1 14.5,5 H 2.707 L 5.854,8.146 A 0.5006316,0.5006316 0 1 1 5.146,8.854 l -4,-4 a 0.5,0.5 0 0 1 0,-0.708 l 4,-4 A 0.5006316,0.5006316 0 1 1 5.854,0.854 L 2.707,4 H 14.5 A 0.5,0.5 0 0 1 15,4.5 Z"
     id="path2"
     style="fill:#ffffff" />
</svg>
