<?xml version="1.0" encoding="UTF-8" standalone="no"?>
<svg
   width="16"
   height="16"
   fill="currentColor"
   class="bi bi-shield-lock-fill"
   viewBox="0 0 16 16"
   version="1.1"
   id="svg184"
   sodipodi:docname="shield-lock-fill.svg"
   inkscape:export-filename="codificador\media\shield-lock-fill.svg"
   inkscape:export-xdpi="96"
   inkscape:export-ydpi="96"
   xmlns:inkscape="http://www.inkscape.org/namespaces/inkscape"
   xmlns:sodipodi="http://sodipodi.sourceforge.net/DTD/sodipodi-0.dtd"
   xmlns="http://www.w3.org/2000/svg"
   xmlns:svg="http://www.w3.org/2000/svg">
  <defs
     id="defs188" />
  <sodipodi:namedview
     id="namedview186"
     pagecolor="#ffffff"
     bordercolor="#000000"
     borderopacity="0.25"
     inkscape:showpageshadow="2"
     inkscape:pageopacity="0.0"
     inkscape:pagecheckerboard="0"
     inkscape:deskcolor="#d1d1d1"
     showgrid="false" />
  <path
     fill-rule="evenodd"
     d="M 8,0 C 7.31,0 6.157,0.265 5.072,0.56 3.962,0.86 2.843,1.215 2.185,1.43 A 1.54,1.54 0 0 0 1.141,2.692 c -0.596,4.477 0.787,7.795 2.465,9.99 a 11.777,11.777 0 0 0 2.517,2.453 C 6.509,15.408 6.867,15.617 7.171,15.76 7.451,15.892 7.752,16 8,16 8.248,16 8.548,15.892 8.829,15.76 a 7.159,7.159 0 0 0 1.048,-0.625 11.775,11.775 0 0 0 2.517,-2.453 c 1.678,-2.195 3.061,-5.513 2.465,-9.99 A 1.541,1.541 0 0 0 13.815,1.429 62.467,62.467 0 0 0 10.928,0.559 C 9.843,0.266 8.69,0 8,0 Z m 0,5 a 1.5,1.5 0 0 1 0.5,2.915 l 0.385,1.99 A 0.5,0.5 0 0 1 8.394,10.5 H 7.606 A 0.5,0.5 0 0 1 7.116,9.905 L 7.5,7.915 A 1.5,1.5 0 0 1 8,5 Z"
     id="path182"
     style="fill:#ffffff" />
</svg>
